<?xml version="1.0" encoding="UTF-8"?><svg xmlns="http://www.w3.org/2000/svg" xmlns:xlink="http://www.w3.org/1999/xlink" viewBox="0 0 500 502.5"><defs><style>.cls-1{fill:url(#linear-gradient);}.cls-2{fill:#e57a74;}.cls-3{fill:#31253b;}.cls-4{fill:url(#linear-gradient-8);}.cls-5{fill:url(#linear-gradient-9);}.cls-6{fill:url(#linear-gradient-3);}.cls-7{fill:url(#linear-gradient-4);}.cls-8{fill:url(#linear-gradient-2);}.cls-9{fill:url(#linear-gradient-6);}.cls-10{fill:url(#linear-gradient-7);}.cls-11{fill:url(#linear-gradient-5);}</style><linearGradient id="linear-gradient" x1="129.1" y1="231.63" x2="158.7" y2="252.35" gradientUnits="userSpaceOnUse"><stop offset="0" stop-color="#fffbfa"/><stop offset=".02" stop-color="#f3efef"/><stop offset=".11" stop-color="#c6c0c5"/><stop offset=".21" stop-color="#9e96a0"/><stop offset=".31" stop-color="#7c7381"/><stop offset=".42" stop-color="#615667"/><stop offset=".53" stop-color="#4b4053"/><stop offset=".66" stop-color="#3c3145"/><stop offset=".8" stop-color="#33273d"/><stop offset="1" stop-color="#31253b"/></linearGradient><linearGradient id="linear-gradient-2" x1="120.06" y1="200.12" x2="168.99" y2="222.94" gradientUnits="userSpaceOnUse"><stop offset="0" stop-color="#fffbfa"/><stop offset=".13" stop-color="#d3cdd1"/><stop offset=".29" stop-color="#a29aa4"/><stop offset=".45" stop-color="#79707e"/><stop offset=".6" stop-color="#5a4f61"/><stop offset=".75" stop-color="#43384c"/><stop offset=".88" stop-color="#35293f"/><stop offset="1" stop-color="#31253b"/></linearGradient><linearGradient id="linear-gradient-3" x1="151.27" y1="177.19" x2="182.92" y2="199.35" xlink:href="#linear-gradient-2"/><linearGradient id="linear-gradient-4" x1="245.44" y1="112.72" x2="336.67" y2="176.59" gradientUnits="userSpaceOnUse"><stop offset="0" stop-color="#fffbfa"/><stop offset=".03" stop-color="#f3efef"/><stop offset=".23" stop-color="#b9b2b9"/><stop offset=".42" stop-color="#88808c"/><stop offset=".6" stop-color="#625869"/><stop offset=".76" stop-color="#473c4f"/><stop offset=".9" stop-color="#362b40"/><stop offset="1" stop-color="#31253b"/></linearGradient><linearGradient id="linear-gradient-5" x1="261.09" y1="148.83" x2="283.02" y2="164.19" xlink:href="#linear-gradient-4"/><linearGradient id="linear-gradient-6" x1="251.13" y1="166.28" x2="303.8" y2="203.16" gradientUnits="userSpaceOnUse"><stop offset="0" stop-color="#fffbfa"/><stop offset=".17" stop-color="#d3ced1"/><stop offset=".47" stop-color="#8e8691"/><stop offset=".71" stop-color="#5b5162"/><stop offset=".9" stop-color="#3c3145"/><stop offset="1" stop-color="#31253b"/></linearGradient><linearGradient id="linear-gradient-7" x1="279.7" y1="153.77" x2="428.89" y2="331.57" gradientUnits="userSpaceOnUse"><stop offset=".13" stop-color="#fffbfa"/><stop offset=".24" stop-color="#cac4c9"/><stop offset=".36" stop-color="#9c949e"/><stop offset=".47" stop-color="#756c7a"/><stop offset=".59" stop-color="#574d5e"/><stop offset=".69" stop-color="#42364a"/><stop offset=".8" stop-color="#35293f"/><stop offset=".89" stop-color="#31253b"/></linearGradient><linearGradient id="linear-gradient-8" x1="404.55" y1="338.15" x2="475.92" y2="491.2" gradientUnits="userSpaceOnUse"><stop offset=".13" stop-color="#fffbfa"/><stop offset=".23" stop-color="#cac4c9"/><stop offset=".34" stop-color="#9c949e"/><stop offset=".45" stop-color="#756c7a"/><stop offset=".56" stop-color="#574d5e"/><stop offset=".66" stop-color="#42364a"/><stop offset=".76" stop-color="#35293f"/><stop offset=".85" stop-color="#31253b"/></linearGradient><linearGradient id="linear-gradient-9" x1="127" y1="426.09" x2="145.2" y2="476.09" gradientUnits="userSpaceOnUse"><stop offset=".13" stop-color="#fffbfa"/><stop offset=".25" stop-color="#cac4c9"/><stop offset=".37" stop-color="#9c949e"/><stop offset=".5" stop-color="#756c7a"/><stop offset=".62" stop-color="#574d5e"/><stop offset=".74" stop-color="#42364a"/><stop offset=".85" stop-color="#35293f"/><stop offset=".95" stop-color="#31253b"/></linearGradient></defs><g id="Layer_4"><circle class="cls-2" cx="250" cy="110.74" r="60.85"/></g><g id="silouette"><path class="cls-3" d="m0,263.01l118.9-80.58h9.94l9.94-7.85,5.76,6.8,11.51-10.47h9.42l13.08-13.08h10.47l16.74-18.84,6.28-2.09,8.37-10.47h10.47l7.85-10.47,7.85,5.23,3.42-10.47,22.22,11.51h8.37l12.56,8.9,4.19,7.85s22.5-4.71,32.96,14.65l2.62,5.76,27.21,2.62,7.33,9.94,7.85-.52,10.99,12.03s12.56,4.19,24.07,15.7c11.51,11.51,8.37,7.85,16.74,12.56l4.19-4.71,8.37,6.8,12.56-.52,47.79,36.1v253.09H0v-239.48Z"/></g><g id="light_part"><polygon class="cls-1" points="129.11 231.61 137.74 246.79 162.59 246.79 152.91 239.2 129.11 231.61"/><polygon class="cls-8" points="122.83 194.2 125.7 208.85 145.85 223.76 168.61 223.76 155.27 204.93 143.76 204.93 140.36 199.17 129.11 198.65 122.83 194.2"/><polygon class="cls-6" points="186.53 194.2 155.66 170.91 155.66 178.76 162.46 183.73 150.69 183.73 164.82 196.03 186.53 194.2"/><path class="cls-7" d="m250,110.74l8.87,7.85,1.83,6.28-11.85-2.39-7.38-4.68,6.67,13.34,54.68,44.21h24.07l-34.8-32.31,29.3,20.01h24.33l-12.82-3.66s-6.28-23.81-33.31-20.73c-1.07-1.19-4.5-4.26-6.96-7.88-6.83-4.49-12.19-9.2-12.19-9.2h-8.24l-22.22-10.86Z"/><polygon class="cls-11" points="261.1 148.68 274.05 161.63 281.7 165.94 275.42 155.15 261.1 148.68"/><path class="cls-9" d="m257.17,157.31l14.23,20.6-23.25-3.73s24.11,14.95,32.77,29.63l1.96,3.14,29.43-16.29-55.14-33.36Z"/><path class="cls-10" d="m302.69,334.69l-29.04-47.88-27.86-10.6-23.15-23.55v-21.06l20.41,10.86-14.13-18.71-6.28-22.11,29.04,19.23.39-11.9,25.51,25.64,38.07,18.05-5.1-13.47,27.08,9.16-3.53-29.04-16.09-23.28,14.91,7.59-3.92-20.15,22.37-1.34-5.62-9.12h5.62l8.24-7.06,14.91,17.53s20.92-.94,34.2,14.11c13.28,15.06,19.56,18.98,19.56,18.98l3.01-9.55,18.97,16.74,1.96-10.47,47.79,36.1v22.5l-76.83-39.24,61.22,51.41-35.32,17.27-73.39-51.02,48.27,62.4-93.79,60.44-27.47-38.46Z"/><path class="cls-4" d="m500,408.47c0-.39-50.93-41.6-50.93-41.6l-13.34,3.92-19.62-11.77h-9.42l-20.8-10.2v4.71s22.09,1.17,26.69,87.91c3.35,63.19,6.13,61.05,6.13,61.05h81.29v-94.02Z"/><path class="cls-5" d="m108.12,433.66s16.16,11.75,16.74,31.14c.59,19.39-2.66,36.9-2.66,36.9l53.77-29.85-27.02-27.02-9.99.88-20.85-13.51-1.95,1.95-8.04-.48Z"/></g></svg>